# xmcd
#
# Track frame offsets: 
#        150
#        22941
#        88485
#        227364
#        240387
#
# Disc length: 3740 seconds
#
# Revision: 1
# Processed by: cddbd v1.5.2PL0 Copyright (c) Steve Scherf et al.
# Submitted via: ExactAudioCopy v0.99pb5
#
DISCID=2d0e9a05
DTITLE=String Cheese Incident - OTR 06-19-2002 St. Louis, MO [CD3]
DYEAR=2002
DGENRE=Bluegrass
TTITLE0=Up the Canyon
TTITLE1=Don't Say
TTITLE2=Rythm of the Road
TTITLE3='Round the Wheel
TTITLE4=Smile
EXTD=
EXTT0=
EXTT1=
EXTT2=
EXTT3=
EXTT4=
PLAYORDER=
